<svg width="110" height="110" viewBox="0 0 110 110" fill="none" xmlns="http://www.w3.org/2000/svg">
<path d="M88.6364 68.6364C88.0313 70.0073 87.8508 71.5282 88.1182 73.0027C88.3855 74.4772 89.0885 75.8378 90.1364 76.9091L90.4091 77.1818C91.2543 78.0261 91.9249 79.0287 92.3824 80.1324C92.8399 81.236 93.0753 82.4189 93.0753 83.6136C93.0753 84.8083 92.8399 85.9913 92.3824 87.0949C91.9249 88.1985 91.2543 89.2011 90.4091 90.0454C89.5648 90.8907 88.5622 91.5612 87.4585 92.0187C86.3549 92.4762 85.172 92.7117 83.9773 92.7117C82.7826 92.7117 81.5996 92.4762 80.496 92.0187C79.3924 91.5612 78.3898 90.8907 77.5454 90.0454L77.2727 89.7727C76.2015 88.7248 74.8408 88.0219 73.3663 87.7545C71.8918 87.4872 70.371 87.6677 69 88.2727C67.6556 88.8489 66.509 89.8057 65.7014 91.0252C64.8938 92.2447 64.4604 93.6737 64.4545 95.1364V95.9091C64.4545 98.3201 63.4968 100.632 61.7919 102.337C60.087 104.042 57.7747 105 55.3636 105C52.9526 105 50.6403 104.042 48.9354 102.337C47.2305 100.632 46.2727 98.3201 46.2727 95.9091V95.5C46.2375 93.9955 45.7505 92.5363 44.875 91.3123C43.9996 90.0882 42.7761 89.1558 41.3636 88.6364C39.9927 88.0313 38.4718 87.8508 36.9973 88.1182C35.5228 88.3855 34.1622 89.0885 33.0909 90.1364L32.8182 90.4091C31.9739 91.2543 30.9713 91.9249 29.8676 92.3824C28.764 92.8399 27.581 93.0753 26.3864 93.0753C25.1917 93.0753 24.0087 92.8399 22.9051 92.3824C21.8015 91.9249 20.7988 91.2543 19.9545 90.4091C19.1093 89.5648 18.4388 88.5622 17.9813 87.4585C17.5238 86.3549 17.2883 85.172 17.2883 83.9773C17.2883 82.7826 17.5238 81.5996 17.9813 80.496C18.4388 79.3924 19.1093 78.3898 19.9545 77.5454L20.2273 77.2727C21.2752 76.2015 21.9781 74.8408 22.2455 73.3663C22.5128 71.8918 22.3323 70.371 21.7273 69C21.1511 67.6556 20.1943 66.509 18.9748 65.7014C17.7553 64.8938 16.3263 64.4604 14.8636 64.4545H14.0909C11.6798 64.4545 9.36754 63.4968 7.66267 61.7919C5.95779 60.087 5 57.7747 5 55.3636C5 52.9526 5.95779 50.6403 7.66267 48.9354C9.36754 47.2305 11.6798 46.2727 14.0909 46.2727H14.5C16.0045 46.2375 17.4637 45.7505 18.6877 44.875C19.9118 43.9996 20.8442 42.7761 21.3636 41.3636C21.9687 39.9927 22.1492 38.4718 21.8818 36.9973C21.6145 35.5228 20.9115 34.1622 19.8636 33.0909L19.5909 32.8182C18.7457 31.9739 18.0751 30.9713 17.6176 29.8676C17.1601 28.764 16.9247 27.581 16.9247 26.3864C16.9247 25.1917 17.1601 24.0087 17.6176 22.9051C18.0751 21.8015 18.7457 20.7988 19.5909 19.9545C20.4352 19.1093 21.4378 18.4388 22.5415 17.9813C23.6451 17.5238 24.828 17.2883 26.0227 17.2883C27.2174 17.2883 28.4004 17.5238 29.504 17.9813C30.6076 18.4388 31.6102 19.1093 32.4545 19.9545L32.7273 20.2273C33.7985 21.2752 35.1592 21.9781 36.6337 22.2455C38.1082 22.5128 39.629 22.3323 41 21.7273H41.3636C42.708 21.1511 43.8546 20.1943 44.6622 18.9748C45.4699 17.7553 45.9033 16.3263 45.9091 14.8636V14.0909C45.9091 11.6798 46.8669 9.36754 48.5718 7.66267C50.2766 5.95779 52.5889 5 55 5C57.4111 5 59.7234 5.95779 61.4282 7.66267C63.1331 9.36754 64.0909 11.6798 64.0909 14.0909V14.5C64.0967 15.9627 64.5301 17.3917 65.3378 18.6112C66.1454 19.8307 67.292 20.7874 68.6364 21.3636C70.0073 21.9687 71.5282 22.1492 73.0027 21.8818C74.4772 21.6145 75.8378 20.9115 76.9091 19.8636L77.1818 19.5909C78.0261 18.7457 79.0287 18.0751 80.1324 17.6176C81.236 17.1601 82.4189 16.9247 83.6136 16.9247C84.8083 16.9247 85.9913 17.1601 87.0949 17.6176C88.1985 18.0751 89.2011 18.7457 90.0454 19.5909C90.8907 20.4352 91.5612 21.4378 92.0187 22.5415C92.4762 23.6451 92.7117 24.828 92.7117 26.0227C92.7117 27.2174 92.4762 28.4004 92.0187 29.504C91.5612 30.6076 90.8907 31.6102 90.0454 32.4545L89.7727 32.7273C88.7248 33.7985 88.0219 35.1592 87.7545 36.6337C87.4872 38.1082 87.6677 39.629 88.2727 41V41.3636C88.8489 42.708 89.8057 43.8546 91.0252 44.6622C92.2447 45.4699 93.6737 45.9033 95.1364 45.9091H95.9091C98.3201 45.9091 100.632 46.8669 102.337 48.5718C104.042 50.2766 105 52.5889 105 55C105 57.4111 104.042 59.7234 102.337 61.4282C100.632 63.1331 98.3201 64.0909 95.9091 64.0909H95.5C94.0373 64.0967 92.6083 64.5301 91.3888 65.3378C90.1693 66.1454 89.2126 67.292 88.6364 68.6364V68.6364Z" stroke="white" stroke-width="10" stroke-linecap="round" stroke-linejoin="round"/>
<path d="M54.5 67C61.4036 67 67 61.4036 67 54.5C67 47.5964 61.4036 42 54.5 42C47.5964 42 42 47.5964 42 54.5C42 61.4036 47.5964 67 54.5 67Z" stroke="white" stroke-width="10" stroke-linecap="round" stroke-linejoin="round"/>
</svg>
